<?xml version="1.0" standalone="no"?><!DOCTYPE svg PUBLIC "-//W3C//DTD SVG 1.1//EN" "http://www.w3.org/Graphics/SVG/1.1/DTD/svg11.dtd"><svg t="1715766365945" class="icon" viewBox="0 0 1025 1024" version="1.1" xmlns="http://www.w3.org/2000/svg" p-id="5214" xmlns:xlink="http://www.w3.org/1999/xlink" width="200.1953125" height="200"><path d="M1 336c0.974-8.73 1.84-17.474 2.938-26.188 7.083-56.204 27.291-107.203 61.519-152.374 31.505-41.576 70.671-73.925 119.342-93.379 86.992-34.772 170.71-26.894 250.519 21.841 29.004 17.712 53.474 40.691 74.47 67.385 0.916 1.164 1.886 2.287 3.159 3.826 5.05-5.983 9.797-11.896 14.844-17.543 43.37-48.524 96.561-80.353 160.776-92.082 63.172-11.538 123.353-1.548 179.659 29.443 53.205 29.283 92.877 71.916 120.814 125.594 20.805 39.973 32.04 82.592 35.141 127.544 3.856 55.909-7.121 108.91-30.076 159.688-0.696 1.541-2.955 3.366-4.503 3.382-20.496 0.21-40.995 0.121-61.493 0.087-0.464-0.001-0.928-0.241-1.71-0.458 4.435-9.2 9.001-18.207 13.166-27.396 17.949-39.596 27.192-81.021 25.091-124.616-3.214-66.685-26.805-124.9-74.068-172.554-36.268-36.565-80.158-58.743-131.631-64.004-58.483-5.979-110.608 10.77-156.586 46.982-25.732 20.267-46.077 45.166-61.636 73.956-5.432 10.051-13.206 16.77-24.851 17.72-13.543 1.106-23.458-4.893-29.886-16.714-9.349-17.191-20.312-33.259-33.455-47.769-33.79-37.301-74.812-62.371-124.592-71.569-60.902-11.252-116.687 2.065-166.154 38.896-54.563 40.625-85.784 95.854-97.003 162.635-10.54 62.735 2.059 121.421 31.434 177.079 31.978 60.589 71.836 115.574 117.819 166.278 66.052 72.832 138.267 139.162 213.248 202.561 26.202 22.154 53.076 43.513 79.688 65.18 6.015 4.896 6.18 4.886 12.241-0.113 34.827-28.724 69.614-57.498 104.418-86.251 0.853-0.704 1.74-1.366 3.133-2.456 0.107 2.082 0.244 3.504 0.245 4.926 0.013 22.998-0.069 45.997 0.095 68.995 0.024 3.394-1.15 5.508-3.669 7.54-23.08 18.618-45.859 37.618-69.183 55.927-26.143 20.521-56.936 20.12-83.171-0.461-66.233-51.956-130.048-106.737-191.488-164.28-51.72-48.439-101.447-98.787-146.341-153.719-38.723-47.382-71.987-98.346-98.598-153.465C15.896 457.193 4.442 416.166 1.932 372.859 1.818 370.895 1.319 368.953 1 367 1 356.667 1 346.333 1 336z" p-id="5215"></path><path d="M1014.726 659.936c0 18.362 0 35.795 0 53.705-54.735 0-109.168 0-164.193 0 0 54.883 0 109.29 0 164.175-19.272 0-37.953 0-57.171 0 0-54.601 0-109.015 0-163.978-54.933 0-109.336 0-164.197 0 0-18.076 0-35.605 0-53.603 54.49 0 108.915 0 163.951 0 0-55.006 0-109.556 0-164.519 19.161 0 37.715 0 56.96 0 0 54.544 0 109.089 0 164.219C905.303 659.936 959.848 659.936 1014.726 659.936z" p-id="5216"></path></svg>