<?xml version="1.0" standalone="no"?><!DOCTYPE svg PUBLIC "-//W3C//DTD SVG 1.1//EN" "http://www.w3.org/Graphics/SVG/1.1/DTD/svg11.dtd"><svg t="1715223563865" class="icon" viewBox="0 0 1024 1024" version="1.1" xmlns="http://www.w3.org/2000/svg" p-id="8173" xmlns:xlink="http://www.w3.org/1999/xlink" width="200" height="200"><path d="M916.16 360.494L562.622 79.919C529.939 55.927 484.353 57 452.924 82.5L104.497 360.535c-19.798 16.064-31.225 39.73-31.225 64.668V919.3c0 21.173 17.164 38.337 38.337 38.337H320.31c21.173 0 38.337-17.164 38.337-38.337V682.871c0-34.874 29.614-63.407 65.809-63.407h175.289c36.195 0 65.809 28.533 65.809 63.407V919.3c0 21.173 17.164 38.337 38.337 38.337H912.39c21.173 0 38.337-17.164 38.337-38.337V427.742c0.001-26.385-12.784-51.258-34.567-67.248z" fill="" p-id="8174"></path></svg>