<?xml version="1.0" standalone="no"?><!DOCTYPE svg PUBLIC "-//W3C//DTD SVG 1.1//EN" "http://www.w3.org/Graphics/SVG/1.1/DTD/svg11.dtd"><svg t="1715841977955" class="icon" viewBox="0 0 1024 1024" version="1.1" xmlns="http://www.w3.org/2000/svg" p-id="3428" xmlns:xlink="http://www.w3.org/1999/xlink" width="200" height="200"><path d="M822.786232 1023.998494H201.182678a84.326064 84.326064 0 0 1-17.768707-2.108151c-0.301165 0-0.602329-0.301165-0.903493-0.301165a71.918086 71.918086 0 0 1-15.961719-5.722126v0.301165c-0.903494-0.301165-1.806987-1.204658-2.710481-1.505823a80.922905 80.922905 0 0 1-16.564048-11.444251c-0.301165-0.301165-0.602329-0.301165-0.903494-0.602329a72.670997 72.670997 0 0 1-12.648909-14.455897 0.301165 0.301165 0 0 0-0.301165-0.301164 74.116587 74.116587 0 0 1-8.432606-17.768707c-0.602329-1.806987-1.204658-3.31281-1.806987-5.119796a76.495786 76.495786 0 0 1-3.011645-20.479187V79.546583a86.64503 86.64503 0 0 1 3.011645-22.286174 28.42993 28.42993 0 0 1 0.903493-2.710481 77.369163 77.369163 0 0 1 8.432607-18.973364v-0.602329A80.169993 80.169993 0 0 1 146.671901 19.012516a26.321778 26.321778 0 0 0 3.011645-2.409316 97.84835 97.84835 0 0 1 15.35939-9.034936c0.602329 0 0.903494-0.602329 1.505823-0.602329a98.541029 98.541029 0 0 1 15.961719-5.119797h0.602329a89.686792 89.686792 0 0 1 18.069871-1.806987h621.603554a78.543705 78.543705 0 0 1 81.013253 77.098116v867.353796A80.531391 80.531391 0 0 1 822.786232 1023.998494zM843.265418 90.388505a30.116451 30.116451 0 0 0-30.116451-30.116451H210.819942a28.219115 28.219115 0 0 0-10.239593 2.108151 66.828405 66.828405 0 0 0-18.371036 22.587339l418.618673 64.75037C641.485195 157.247027 685.154049 181.039023 692.683162 210.85431v602.329025c-6.926784 29.815287-48.186322 47.282828-91.855176 56.618929L190.943084 946.29805a73.273326 73.273326 0 0 0 21.98501 17.467542H813.148967a30.116451 30.116451 0 0 0 30.116451-30.116452V90.388505zM513.189113 527.679377a56.618928 56.618928 0 1 0 56.618928-55.715434 56.106949 56.106949 0 0 0-56.618928 55.715434z" fill="#FF5757" p-id="3429"></path></svg>