<?xml version="1.0" standalone="no"?><!DOCTYPE svg PUBLIC "-//W3C//DTD SVG 1.1//EN" "http://www.w3.org/Graphics/SVG/1.1/DTD/svg11.dtd"><svg t="1715579428901" class="icon" viewBox="0 0 1029 1024" version="1.1" xmlns="http://www.w3.org/2000/svg" p-id="35054" xmlns:xlink="http://www.w3.org/1999/xlink" width="200.9765625" height="200"><path d="M341.333333 853.333333c134.464646-139.636364 124.121212-134.464646 155.151515-134.464646h429.252526c20.686869 0 41.373737-15.515152 41.373737-41.373738V129.292929c0-20.686869-20.686869-41.373737-41.373737-41.373737H103.434343c-20.686869 0-41.373737 15.515152-41.373737 41.373737v548.20202c0 20.686869 20.686869 41.373737 41.373737 41.373738h175.838384c25.858586 0 46.545455 15.515152 62.060606 134.464646z m-36.20202 118.949495s-20.686869-186.181818-36.20202-186.181818H77.575758c-41.373737 0-77.575758-36.20202-77.575758-77.575757V103.434343C0 62.060606 36.20202 25.858586 77.575758 25.858586h874.020202c41.373737 0 77.575758 36.20202 77.575757 77.575757v605.09091c0 41.373737-36.20202 77.575758-77.575757 77.575757H506.828283c-20.686869-5.171717-201.69697 186.181818-201.69697 186.181818m0 0" fill="" p-id="35055"></path></svg>