<?xml version="1.0" standalone="no"?><!DOCTYPE svg PUBLIC "-//W3C//DTD SVG 1.1//EN" "http://www.w3.org/Graphics/SVG/1.1/DTD/svg11.dtd"><svg t="1715579617477" class="icon" viewBox="0 0 1024 1024" version="1.1" xmlns="http://www.w3.org/2000/svg" p-id="39825" xmlns:xlink="http://www.w3.org/1999/xlink" width="200" height="200"><path d="M938.6496 419.328v84.1216a307.2 307.2 0 0 1-295.68 306.9952l-11.52 0.2048h-368.128l95.6928 95.744-60.3648 60.3136L99.9936 768l198.656-198.656 60.3648 60.3136-95.6928 95.5904 385.2288 0.1024a204.8 204.8 0 0 0 204.544-194.56l0.256-10.24v-15.872l85.2992-85.3504z m-213.2992-361.984L924.0064 256l-198.656 198.656-60.3648-60.3136 95.744-95.744-385.28 0.0512a204.8 204.8 0 0 0-204.544 194.56l-0.256 10.24v15.872l-85.3504 85.2992v-84.0704a307.2 307.2 0 0 1 295.7312-306.9952l11.52-0.2048 368.128-0.1024-95.6928-95.5904 60.3648-60.3648z" fill="#656971" p-id="39826"></path></svg>