<?xml version="1.0" standalone="no"?><!DOCTYPE svg PUBLIC "-//W3C//DTD SVG 1.1//EN" "http://www.w3.org/Graphics/SVG/1.1/DTD/svg11.dtd"><svg t="1715416456567" class="icon" viewBox="0 0 1024 1024" version="1.1" xmlns="http://www.w3.org/2000/svg" p-id="5831" xmlns:xlink="http://www.w3.org/1999/xlink" width="200" height="200"><path d="M725.504 334.848L443.904 614.4 307.2 477.184a34.304 34.304 0 0 0-47.616 0 33.28 33.28 0 0 0 0 47.616L409.6 673.792a51.2 51.2 0 0 0 74.24 0l291.328-291.328a33.28 33.28 0 0 0-47.104-47.616z" p-id="5832"></path><path d="M515.584 2.56A508.928 508.928 0 1 0 1024 512 512 512 0 0 0 515.584 2.56z m0 950.272A441.856 441.856 0 1 1 956.928 512a442.368 442.368 0 0 1-441.344 440.832z" p-id="5833"></path></svg>