<?xml version="1.0" standalone="no"?><!DOCTYPE svg PUBLIC "-//W3C//DTD SVG 1.1//EN" "http://www.w3.org/Graphics/SVG/1.1/DTD/svg11.dtd"><svg t="1715261423842" class="icon" viewBox="0 0 1024 1024" version="1.1" xmlns="http://www.w3.org/2000/svg" p-id="28499" xmlns:xlink="http://www.w3.org/1999/xlink" width="200" height="200"><path d="M630.784 831.488c12.288 0 20.48-8.192 20.48-16.384l28.672-450.56c0-12.288-8.192-20.48-16.384-20.48-12.288 0-20.48 8.192-20.48 16.384l-28.672 450.56C614.4 823.296 622.592 831.488 630.784 831.488z" p-id="28500"></path><path d="M409.6 831.488c12.288 0 20.48-8.192 16.384-20.48l-28.672-450.56c0-12.288-8.192-20.48-20.48-16.384C368.64 344.064 360.448 352.256 360.448 360.448l28.672 450.56C389.12 823.296 397.312 831.488 409.6 831.488z" p-id="28501"></path><path d="M520.192 831.488c12.288 0 20.48-8.192 20.48-20.48l0-450.56c0-12.288-8.192-20.48-20.48-20.48-12.288 0-20.48 8.192-20.48 20.48l0 450.56C499.712 823.296 507.904 831.488 520.192 831.488z" p-id="28502"></path><path d="M839.68 229.376l-188.416 0L651.264 151.552c0-20.48-16.384-36.864-36.864-36.864l-188.416 0c-20.48 0-36.864 16.384-36.864 36.864l0 73.728L200.704 225.28C188.416 229.376 180.224 237.568 180.224 245.76c0 12.288 8.192 20.48 20.48 20.48l36.864 0 36.864 602.112c4.096 40.96 32.768 73.728 73.728 73.728l339.968 0c40.96 0 69.632-32.768 73.728-73.728l36.864-602.112 36.864 0C851.968 266.24 860.16 258.048 860.16 245.76 860.16 237.568 851.968 229.376 839.68 229.376zM425.984 151.552 614.4 151.552l0 73.728-188.416 0L425.984 151.552zM729.088 868.352c-4.096 20.48-16.384 36.864-36.864 36.864L352.256 905.216c-20.48 0-32.768-16.384-36.864-36.864L274.432 266.24l491.52 0L729.088 868.352z" p-id="28503"></path></svg>